<svg width="250" height="250" viewBox="0 0 250 250" fill="none" xmlns="http://www.w3.org/2000/svg">
<circle cx="125.5" cy="125.5" r="124.5" fill="black"/>
<path d="M205.875 169.283L161.341 213.818L152.418 204.895L143.536 213.778L134.613 204.856L125.731 213.738L116.808 204.816L107.926 213.698L36.3634 142.136L45.246 133.253L36.3236 124.331L45.2061 115.448L36.2838 106.526L45.1663 97.6434L36.1828 88.6599L89.5998 35.2429L98.5833 44.2264L107.466 35.3439L116.388 44.2663L125.332 35.3229L134.254 44.2453L143.137 35.3627L161.042 53.2686L143.217 71.0946L134.294 62.1722L125.412 71.0547L116.428 62.0712L107.546 70.9538L98.6231 62.0314L63.0321 97.6224L71.9545 106.545L63.0111 115.488L71.9946 124.472L63.112 133.354L116.707 186.95L125.59 178.067L134.574 187.051L143.517 178.107L152.439 187.03L188.03 151.439L179.108 142.516L187.991 133.634L179.007 124.65L187.89 115.768L178.967 106.845L152.32 133.493L134.414 115.587L178.887 71.1134L241.466 133.692L223.64 151.518L205.795 133.674L196.913 142.556L205.835 151.478L196.953 160.361L205.875 169.283Z" fill="white"/>
</svg>
