<svg width="122" height="122" viewBox="0 0 122 122" fill="none" xmlns="http://www.w3.org/2000/svg">
<path d="M122 61C122 94.6894 94.6894 122 61 122C27.3106 122 0 94.6894 0 61C0 27.3106 27.3106 0 61 0C94.6894 0 122 27.3106 122 61Z" fill="black"/>
<path d="M49.8013 41.1301C49.8013 48.4422 50.1283 53.5289 50.7824 56.3902C51.9038 61.2649 54.7538 63.7023 59.3326 63.7023C62.136 63.7023 64.3319 62.8015 65.9205 61C68.1632 58.1387 69.2845 51.3565 69.2845 40.6532C69.2845 33.659 68.9575 28.6782 68.3033 25.711C67.0886 20.8362 64.1451 18.3988 59.4728 18.3988C56.576 18.3988 54.3801 19.3526 52.8849 21.2601C50.8291 24.0154 49.8013 30.6387 49.8013 41.1301ZM60.0335 14.2659C66.5746 14.2659 72.0879 15.8555 76.5732 19.0347C76.947 17.869 77.3675 16.7033 77.8347 15.5376C80.5446 9.17919 84.3292 6 89.1883 6C90.9637 6 92.599 6.37091 94.0941 7.11272C97.3647 8.70231 99 11.4046 99 15.2197C99 15.7495 98.9533 16.2794 98.8598 16.8092C98.2057 19.7765 96.477 21.2601 93.6736 21.2601C92.4589 21.2601 91.1506 20.6243 89.749 19.3526C87.9735 17.5511 86.4784 16.6503 85.2636 16.6503C83.0209 16.7563 81.0586 18.2929 79.3766 21.2601C84.4226 26.2408 86.9923 32.5992 87.0858 40.3353C87.0858 46.0578 85.5907 51.2505 82.6004 55.9133C77.3675 63.8613 69.6116 67.8353 59.3326 67.8353L44.3347 67.6763C43.9609 67.6763 43.5872 67.7293 43.2134 67.8353C40.8773 68.1532 39.7092 69.5308 39.7092 71.9682C39.7092 72.2861 39.7559 72.604 39.8494 72.922C40.3166 75.2534 41.765 76.4721 44.1946 76.578L73.2092 77.2139C74.5174 77.2139 75.7789 77.3198 76.9937 77.5318C87.2727 79.0154 92.4121 85.1089 92.4121 95.8121C92.4121 98.5674 91.7113 101.217 90.3096 103.76C85.8243 111.92 75.9191 116 60.5941 116C54.2399 116 48.8201 115.046 44.3347 113.139C37.7001 110.277 34.3828 105.986 34.3828 100.263C34.3828 97.0838 35.5976 93.8516 38.0272 90.5665C34.6632 87.3873 32.9344 83.2543 32.841 78.1676C32.841 76.0482 33.2148 73.9287 33.9623 71.8092C36.1116 66.1927 39.9428 63.4374 45.4561 63.5434H45.5962C44.288 62.6956 43.0265 61.7418 41.8117 60.6821C35.2706 54.9595 32 48.2832 32 40.6532C32 35.2486 33.4017 30.3738 36.205 26.0289C41.251 18.1869 49.1939 14.2659 60.0335 14.2659ZM60.5941 111.708C64.9861 111.708 69.0042 111.284 72.6485 110.436C81.3389 108.529 85.6841 105.085 85.6841 100.104C85.6841 99.0443 85.4972 98.1435 85.1234 97.4017C84.189 95.4942 81.0119 94.5405 75.592 94.5405L47.2782 94.2225C45.2225 94.2225 43.2601 93.7987 41.3912 92.9509C39.9895 95.1763 39.2887 97.4017 39.2887 99.6272C39.2887 100.793 39.5223 101.959 39.9895 103.124C42.3257 108.847 49.1939 111.708 60.5941 111.708Z" fill="#F2F2F2"/>
</svg>
