<svg width="122" height="122" viewBox="0 0 122 122" fill="none" xmlns="http://www.w3.org/2000/svg">
<path d="M48.29 71.436C49.53 71.436 50.6253 71.188 51.576 70.692C52.5267 70.196 53.312 69.5347 53.932 68.708C54.552 67.8813 55.0067 66.9513 55.296 65.918C55.6267 64.8433 55.792 63.7273 55.792 62.57C55.792 61.2473 55.668 60.0073 55.42 58.85C55.172 57.6513 54.7587 56.5973 54.18 55.688C53.6013 54.7787 52.8367 54.0553 51.886 53.518C50.9353 52.9807 49.7367 52.712 48.29 52.712C47.05 52.712 45.9753 52.96 45.066 53.456C44.198 53.952 43.454 54.634 42.834 55.502C42.2553 56.3287 41.8213 57.3 41.532 58.416C41.284 59.4907 41.16 60.6273 41.16 61.826C41.16 62.9833 41.2633 64.1407 41.47 65.298C41.718 66.414 42.1107 67.4267 42.648 68.336C43.2267 69.2453 43.9707 69.9893 44.88 70.568C45.7893 71.1467 46.926 71.436 48.29 71.436ZM64.162 76.954C64.162 78.2353 63.976 79.7027 63.604 81.356C63.2733 83.0093 62.5293 84.5387 61.372 85.944C60.2147 87.3907 58.5407 88.61 56.35 89.602C54.1593 90.594 51.2247 91.09 47.546 91.09C45.9753 91.09 44.3633 90.8833 42.71 90.47C41.098 90.098 39.61 89.4987 38.246 88.672C36.9233 87.8453 35.8073 86.7707 34.898 85.448C34.03 84.1667 33.534 82.6167 33.41 80.798H42.152C42.5653 82.4513 43.3713 83.588 44.57 84.208C45.7687 84.8693 47.1533 85.2 48.724 85.2C51.204 85.2 53.002 84.456 54.118 82.968C55.2753 81.48 55.8333 79.5993 55.792 77.326V73.11H55.668C54.7173 74.8047 53.3533 76.0653 51.576 76.892C49.84 77.6773 48.0007 78.07 46.058 78.07C43.6607 78.07 41.594 77.6567 39.858 76.83C38.122 75.962 36.696 74.8047 35.58 73.358C34.464 71.87 33.6373 70.1547 33.1 68.212C32.604 66.228 32.356 64.1407 32.356 61.95C32.356 59.8833 32.6453 57.8993 33.224 55.998C33.844 54.0553 34.7327 52.3607 35.89 50.914C37.0473 49.426 38.4733 48.248 40.168 47.38C41.904 46.512 43.888 46.078 46.12 46.078C48.228 46.078 50.0673 46.4707 51.638 47.256C53.25 48.0413 54.5933 49.364 55.668 51.224H55.792V46.946H64.162V76.954ZM84.5183 33.678H91.5863L74.2883 79.992H67.2823L84.5183 33.678Z" fill="black"/>
<path d="M21 35L4 57.5" stroke="black" stroke-width="5"/>
<path d="M21 77.5L4 55" stroke="black" stroke-width="5"/>
<path d="M101 35L118 57.5" stroke="black" stroke-width="5"/>
<path d="M101 77.5L118 55" stroke="black" stroke-width="5"/>
</svg>
