<svg width="118" height="35" viewBox="0 0 118 35" fill="none" xmlns="http://www.w3.org/2000/svg">
<path d="M35.1484 3.31982C30.8693 4.49756 26.2131 7.53433 23.8055 11.3041C23.3134 12.0746 22.0969 14.0893 23.6044 14.9342C26.4934 16.5536 31.8994 13.8948 34.3037 12.5912C34.9185 12.2579 37.8192 10.5256 38.0444 9.11194C38.2216 7.99995 35.6825 9.56317 34.9171 10.389C33.5328 11.8826 32.8648 13.8349 32.0311 15.6482C30.2952 19.4239 28.4497 23.1022 25.8468 26.3777C23.7672 28.9946 21.97 30.9066 18.9486 32.4011C15.2251 34.2428 11.2558 33.9877 7.45485 32.5418C6.14285 32.0428 2.97545 30.2948 1.86385 29.1832C-0.686471 26.6329 3.55703 25.576 5.23252 25.1509C10.2334 23.882 15.6739 23.3905 20.7486 22.9386C34.9575 21.6732 49.2254 21.1643 63.4453 20.0325C81.2491 18.6154 98.9964 16.6462 116.6 13.637" stroke="#5B5B5B" stroke-width="1.5" stroke-linecap="round"/>
<path d="M40.2167 15.6279C39.0054 16.2585 38.0488 17.107 37.5419 18.4234C37.2697 19.1303 37.3199 20.3782 38.3866 20.3944C40.2307 20.4223 41.7489 17.5596 42.5295 16.2715C42.7943 15.8346 43.2107 13.9156 43.1128 15.1151C43.044 15.9572 42.7807 17.1841 43.1429 17.981C43.9706 19.8019 47.3337 18.0384 48.3016 17.438C50.8487 15.8578 53.2009 13.5629 54.516 10.8414C55.22 9.38461 55.6837 7.60167 55.8434 5.99452C55.9232 5.19068 56.1595 2.40453 55.1897 1.75099C54.0022 0.950692 52.3217 6.07577 52.2535 6.29619C51.6068 8.38531 51.3816 9.84598 51.2077 12.028C51.074 13.7046 50.8325 16.1983 51.4591 17.8603C52.0719 19.486 54.3211 18.3493 55.24 17.8C57.0689 16.7067 59.0598 14.8184 59.6646 12.7017C59.8375 12.0965 59.5429 12.1462 59.6444 12.4C60.0047 13.3006 61.5708 13.2667 62.3193 13.1542C63.0556 13.0435 63.7651 12.7262 64.3505 12.2693C64.5121 12.1432 63.3655 13.0038 63.1539 13.3754C61.9898 15.4198 62.0259 18.2009 64.803 18.5441C66.0809 18.702 67.5532 18.456 68.403 17.3977C68.9581 16.7065 68.6714 15.9961 68.9963 15.3464C69.1452 15.0486 69.1988 16.0014 69.4186 16.2514C70.378 17.3422 71.8101 17.601 73.1895 17.3575C75.8391 16.89 78.2307 14.9634 79.0118 12.3498C79.1661 11.8336 79.0611 11.6557 78.5291 11.6056C77.3645 11.496 76.5591 11.7923 76.4979 13.0939C76.4137 14.8823 77.4352 15.9894 79.3235 15.6179C84.7272 14.5549 87.507 8.43088 89.1279 3.80237C89.4388 2.91473 90.44 0.866495 89.51 1.00687C87.3361 1.335 86.6859 6.45481 86.5637 7.87495C86.3108 10.8153 86.3953 14.9353 88.6151 17.2167C89.2969 17.9175 89.9586 18.1731 90.8877 18.2927C91.9928 18.435 92.0479 17.9794 92.8888 17.619" stroke="#5B5B5B" stroke-width="1.5" stroke-linecap="round"/>
<path d="M68.8154 11.2838V11.1028" stroke="#5B5B5B" stroke-width="1.5" stroke-linecap="round"/>
</svg>
